<svg viewBox="19.786290322580648 23.69938 306.6350806451613 353.33094" style="max-height: 500px" xmlns="http://www.w3.org/2000/svg" width="306.6350806451613" height="353.33094"><defs><clipPath transform="translate(21.44 25.38)" id="__id6_s1vix8k4m9"><path data-darkreader-inline-fill="" style="fill: rgb(255, 218, 117); --darkreader-inline-fill: var(--darkreader-text-ffda75, #ffd76b);" d="M0 31.49H296.07V340.88H0z"/></clipPath></defs><g data-name="Layer 2"><g data-name="Layer 1"><g id="__id7_s1vix8k4m9"><path data-darkreader-inline-fill="" style="fill: rgb(249, 177, 48); --darkreader-inline-fill: var(--darkreader-text-f9b130, #f9b63d);" opacity=".63" d="M28.61 66.09H324.68V375.48H28.61z"/></g><g id="__id8_s1vix8k4m9"><path data-darkreader-inline-fill="" style="fill: rgb(255, 218, 117); --darkreader-inline-fill: var(--darkreader-text-ffda75, #ffd76b);" d="M21.44 56.87H317.51V366.26H21.44z"/></g><g data-darkreader-inline-fill="" data-darkreader-inline-stroke="" style="fill: rgb(255, 255, 255); --darkreader-inline-stroke: var(--darkreader-text-ffffff, #e8e6e3); --darkreader-inline-fill: var(--darkreader-text-ffffff, #e8e6e3);" stroke-miterlimit="10" stroke="#fff" id="__id9_s1vix8k4m9" clip-path="url(#__id6_s1vix8k4m9)"><rect data-darkreader-inline-fill="" style="fill: inherit; --darkreader-inline-fill: inherit;" y="83.95" x="2" width="384"/><rect data-darkreader-inline-fill="" style="fill: inherit; --darkreader-inline-fill: inherit;" y="114.95" x="2" width="384"/><rect data-darkreader-inline-fill="" style="fill: inherit; --darkreader-inline-fill: inherit;" y="142.95" x="2" width="384"/><rect data-darkreader-inline-fill="" style="fill: inherit; --darkreader-inline-fill: inherit;" y="170.95" x="2" width="384"/><rect data-darkreader-inline-fill="" style="fill: inherit; --darkreader-inline-fill: inherit;" y="201.95" width="384"/><rect data-darkreader-inline-fill="" style="fill: inherit; --darkreader-inline-fill: inherit;" y="228.95" width="384"/><rect data-darkreader-inline-fill="" style="fill: inherit; --darkreader-inline-fill: inherit;" y="257.95" width="384"/><rect data-darkreader-inline-fill="" style="fill: inherit; --darkreader-inline-fill: inherit;" y="285.95" width="384"/><rect data-darkreader-inline-fill="" style="fill: inherit; --darkreader-inline-fill: inherit;" y="312.95" width="384"/><rect data-darkreader-inline-fill="" style="fill: inherit; --darkreader-inline-fill: inherit;" y="337.95" x="1" width="384"/><rect data-darkreader-inline-fill="" style="fill: inherit; --darkreader-inline-fill: inherit;" y="166.58" x="86.91" width="384" transform="rotate(88.62 276.633 190.255)"/><rect data-darkreader-inline-fill="" style="fill: inherit; --darkreader-inline-fill: inherit;" y="167.32" x="55.92" width="384" transform="rotate(88.62 245.641 191)"/><rect data-darkreader-inline-fill="" style="fill: inherit; --darkreader-inline-fill: inherit;" y="168" x="27.93" width="384" transform="rotate(88.62 217.652 191.675)"/><rect data-darkreader-inline-fill="" style="fill: inherit; --darkreader-inline-fill: inherit;" y="168.67" x="-.06" width="384" transform="rotate(88.62 189.658 192.345)"/><rect data-darkreader-inline-fill="" style="fill: inherit; --darkreader-inline-fill: inherit;" y="167.42" x="-31.1" width="384" transform="rotate(88.62 158.615 191.09)"/><rect data-darkreader-inline-fill="" style="fill: inherit; --darkreader-inline-fill: inherit;" y="168.07" x="-58.1" width="384" transform="rotate(88.62 131.623 191.743)"/><rect data-darkreader-inline-fill="" style="fill: inherit; --darkreader-inline-fill: inherit;" y="168.76" x="-87.09" width="384" transform="rotate(88.62 102.631 192.436)"/><rect data-darkreader-inline-fill="" style="fill: inherit; --darkreader-inline-fill: inherit;" y="169.44" x="-115.08" width="384" transform="rotate(88.62 74.642 193.111)"/><rect data-darkreader-inline-fill="" style="fill: inherit; --darkreader-inline-fill: inherit;" y="170.09" x="-142.07" width="384" transform="rotate(88.62 47.65 193.763)"/><rect data-darkreader-inline-fill="" style="fill: inherit; --darkreader-inline-fill: inherit;" y="171.69" x="-167.04" width="384" transform="rotate(88.62 22.682 195.36)"/></g><g id="__id10_s1vix8k4m9"><path data-darkreader-inline-fill="" style="fill: rgb(161, 125, 96); --darkreader-inline-fill: var(--darkreader-text-a17d60, #aa8a70);" transform="translate(21.44 25.38)" opacity=".58" d="M188,14.64l-7.3,9A42.38,42.38,0,0,0,189,28.49a9.71,9.71,0,0,0-2.1,13.4L134,42c-6.25,0-13.26-.27-17.59-4.79-1.83-3.54,5.87-5.9,5.29-9.85-.47-3.23-6.1-3.9-6.08-7.16,0-1.46,3.86-13.92,4.74-15.45,4-6.91,11.66-4.54,18.49-3.59A198.27,198.27,0,0,1,188,14.64Z"/></g></g></g></svg>